PathFileType  4	(X/Y/Z) C:\Users\antoi\Documents\MyRepositories\mobilecap\ResultsAnalysis
DataRate	CameraRate	NumFrames	NumMarkers	Units	OrigDataRate	OrigDataStartFrame	OrigNumFrames
100.0	100.0	4	51	mm	100.0	176	234
Frame#	Time	r_knee			r_shank_antsup			r_ankle			r_calc			r_5meta			r_toe			L_knee			L_shank_antsup			L_ankle			L_calc			L_5meta			L_toe			r_sh2			r_sh3			r_sh4			L_sh2			L_sh3			r_thigh1			r_thigh2			r_thigh3			r_thigh4			r_thigh5			L_thigh1			L_thigh2			L_thigh3			L_thigh4			r.ASIS			r.PSIS			L.ASIS			L.PSIS			C7			R_Shoulder			L_Shoulder			R_Sternum			L_Sternum			R_humerus			R_elbow_med			R_elbow_lat			R_forearm			R_wrist_radius			R_wrist_ulna			L_humerus			L_elbow_med			L_elbow_lat			L_forearm			L_wrist_radius			L_wrist_ulna			R_HJC			L_HJC			R_HJC_reg			L_HJC_reg			
		X1	Y1	Z1	X2	Y2	Z2	X3	Y3	Z3	X4	Y4	Z4	X5	Y5	Z5	X6	Y6	Z6	X7	Y7	Z7	X8	Y8	Z8	X9	Y9	Z9	X10	Y10	Z10	X11	Y11	Z11	X12	Y12	Z12	X13	Y13	Z13	X14	Y14	Z14	X15	Y15	Z15	X16	Y16	Z16	X17	Y17	Z17	X18	Y18	Z18	X19	Y19	Z19	X20	Y20	Z20	X21	Y21	Z21	X22	Y22	Z22	X23	Y23	Z23	X24	Y24	Z24	X25	Y25	Z25	X26	Y26	Z26	X27	Y27	Z27	X28	Y28	Z28	X29	Y29	Z29	X30	Y30	Z30	X31	Y31	Z31	X32	Y32	Z32	X33	Y33	Z33	X34	Y34	Z34	X35	Y35	Z35	X36	Y36	Z36	X37	Y37	Z37	X38	Y38	Z38	X39	Y39	Z39	X40	Y40	Z40	X41	Y41	Z41	X42	Y42	Z42	X43	Y43	Z43	X44	Y44	Z44	X45	Y45	Z45	X46	Y46	Z46	X47	Y47	Z47	X48	Y48	Z48	X49	Y49	Z49	X50	Y50	Z50	X51	Y51	Z51	

176	1.75000000	-137.96618	528.12849	-395.73000	-102.43009	455.26435	-392.47207	-237.62817	137.91534	-375.47599	-307.22967	128.33392	-423.11719	-167.36533	54.19189	-325.45340	-102.43027	64.55650	-367.66570	-126.14275	521.28406	-847.93183	-99.98634	426.55369	-867.85752	-222.52155	134.88591	-857.18256	-298.62386	126.68779	-807.50065	-148.43367	45.98533	-896.60487	-96.60776	59.48956	-847.46526	-150.26009	352.41365	-363.77254	-178.78276	484.02257	-382.57670	-218.69920	378.96593	-371.96941	-184.75794	454.06940	-857.93913	-212.41864	334.81922	-869.70750	-165.75039	849.60859	-426.83199	-139.88701	742.21859	-407.50036	-244.61596	708.56908	-416.82246	-274.94220	819.61135	-439.73706	-195.69217	707.92973	-388.90093	-203.32550	787.10237	-857.50044	-142.13578	661.70566	-859.43163	-287.87267	739.86455	-790.30245	-226.62270	614.26828	-811.08150	-144.58600	966.27870	-514.35023	-329.02921	1032.99038	-587.21960	-160.41712	937.19498	-764.27718	-340.32816	1030.53432	-688.07523	-185.03388	1431.40299	-670.66488	-74.82297	1432.08848	-539.38754	-98.18768	1431.84316	-813.35349	-47.01572	1372.52380	-645.77166	-47.62524	1369.82326	-696.81559	-30.33339	1414.38963	-425.70673	30.59572	1257.88546	-272.85385	46.58795	1336.51925	-256.77055	119.60254	1350.34243	-373.28163	175.19194	1355.21403	-482.12070	206.11641	1338.46189	-475.17696	-71.24673	1396.35685	-914.57489	-37.56541	1193.57822	-1051.74264	-30.24285	1277.38169	-1078.79455	25.98032	1302.40981	-988.41341	110.12563	1320.25506	-880.13209	138.25701	1325.07566	-898.81403	-236.76242	900.83779	-527.41950	-250.24437	882.88325	-732.66670	-227.07838	894.53496	-538.47488	-245.59772	890.51368	-703.78584	
177	1.76000000	-156.36884	545.16388	-402.64023	-120.27639	475.07244	-397.66732	-231.31937	148.40490	-370.76275	-296.65649	145.67219	-419.34231	-164.29656	56.24715	-324.84258	-98.73696	63.80131	-365.41968	-144.76200	536.78224	-844.06780	-116.52930	443.46428	-865.21879	-217.69245	142.51142	-859.76138	-290.35333	140.63018	-810.03525	-146.14934	48.09129	-897.47676	-93.61022	59.30194	-848.57793	-160.85737	370.38763	-365.63279	-198.59434	498.65291	-389.05401	-230.53843	389.87349	-375.78606	-202.99327	465.16400	-853.83610	-222.42348	344.69422	-868.21020	-159.87044	869.00631	-428.94181	-141.54422	759.72061	-411.17393	-248.46392	733.55853	-421.20327	-270.91984	846.95814	-441.85934	-199.63258	729.10720	-393.04225	-203.52036	808.24235	-855.13799	-150.53866	679.24408	-856.65063	-289.54072	766.64114	-786.57754	-237.19396	636.98024	-807.50868	-134.39431	995.54953	-515.08396	-320.02885	1056.38794	-588.48993	-149.76771	965.00645	-764.44038	-331.24743	1053.39487	-689.23149	-189.50575	1459.95257	-671.00160	-81.47669	1458.96003	-537.71268	-106.15375	1457.42557	-816.06162	-51.52851	1402.22096	-646.06053	-51.89994	1399.72611	-697.88009	-35.60410	1435.98277	-424.33421	15.44765	1273.17728	-274.38148	37.27997	1350.08044	-256.64462	113.13959	1359.47997	-371.83511	170.57624	1361.22059	-480.03304	200.55456	1343.04696	-472.24764	-79.54264	1417.18668	-916.82635	-59.12633	1206.73512	-1048.06566	-45.64566	1288.96170	-1077.63479	15.00888	1312.14889	-990.00906	105.52987	1327.01921	-884.32180	132.08411	1329.93320	-905.01027	-224.57420	927.41875	-527.81857	-237.46950	908.13111	-732.98141	-214.73043	921.16981	-538.95809	-233.10664	916.26832	-703.97968	
178	1.77000000	-177.36215	564.11043	-410.46304	-140.00182	498.01979	-402.98132	-221.98786	162.90099	-364.51510	-282.03188	167.26469	-415.48884	-161.16038	59.89869	-324.48734	-94.05372	64.91587	-361.71029	-165.51606	554.54061	-839.94944	-134.25505	463.21830	-862.00008	-209.12563	154.03250	-864.42598	-276.63975	159.33286	-812.51020	-143.51248	50.10986	-897.71592	-89.10890	59.29215	-850.67638	-171.55378	392.06583	-367.62321	-220.10630	514.64915	-397.09732	-242.72282	403.24758	-380.24047	-222.09997	478.07126	-848.93523	-232.10298	357.00853	-866.33683	-154.22814	888.37615	-431.65070	-143.70902	777.89977	-415.72558	-252.22580	759.63858	-425.69586	-266.62635	874.74812	-443.35593	-203.70815	751.06752	-397.85952	-203.51712	830.59127	-852.82065	-159.92481	698.00739	-853.07378	-291.61575	795.36089	-783.15034	-248.23323	661.91733	-803.29915	-124.39570	1025.54454	-516.01000	-310.69087	1079.78292	-589.92645	-139.26458	993.59262	-764.55767	-322.20411	1076.39008	-690.18811	-193.40275	1487.76570	-671.35118	-88.29787	1483.90318	-536.00966	-113.84060	1480.82373	-818.51453	-55.51368	1430.84761	-646.20795	-55.94905	1428.23214	-698.56968	-40.94578	1455.70099	-423.12533	0.78566	1287.20648	-276.71660	28.03396	1361.71129	-257.14730	106.81710	1366.81853	-370.86153	166.16931	1365.57984	-478.24283	195.13239	1345.93343	-469.86382	-87.81356	1435.92264	-918.98596	-79.42175	1218.80254	-1042.11385	-61.43869	1298.68019	-1075.59329	4.15511	1320.27767	-991.45445	100.42534	1331.08598	-885.36846	125.46312	1333.79871	-911.98900	-212.09220	954.49069	-528.27995	-224.43069	933.90015	-733.34900	-201.77788	948.30400	-539.39369	-220.67062	942.73424	-703.90076	
179	1.78000000	-198.99473	584.75338	-418.42776	-159.11381	522.67502	-407.49033	-213.93636	180.96442	-359.83719	-268.51755	189.55966	-414.28329	-158.15805	69.64461	-324.25408	-88.68907	74.87746	-356.00016	-187.86654	574.54919	-835.33228	-152.22618	485.77694	-859.15592	-199.70372	169.65000	-869.56748	-259.40496	181.43016	-812.36918	-142.21831	54.00204	-896.14279	-83.86108	63.56757	-855.61619	-182.12756	416.26753	-369.32709	-240.37044	532.08353	-405.53390	-254.10425	420.18850	-384.61785	-240.74465	492.52157	-843.93423	-240.28983	371.79142	-865.08507	-148.71952	906.85868	-434.62173	-146.44576	796.02960	-421.02679	-255.98088	785.81986	-429.97068	-261.98701	902.06198	-444.03139	-207.92598	772.87422	-403.13315	-202.55670	852.51263	-850.72829	-169.61366	717.06440	-849.47265	-293.32589	825.29505	-780.91025	-259.71318	688.66821	-798.98772	-115.31384	1055.61460	-517.42071	-301.29523	1102.75713	-591.32211	-129.28667	1022.04422	-765.05574	-313.38951	1099.23581	-690.74820	-196.71332	1514.11127	-671.71752	-94.77214	1506.48082	-534.24322	-120.52673	1501.44277	-820.81091	-58.89247	1457.64358	-646.38153	-59.37813	1454.79118	-699.37771	-46.65679	1473.69663	-421.96914	-13.19744	1299.88496	-279.56965	18.87683	1371.64106	-257.94360	100.57215	1372.73342	-370.14168	161.84047	1368.61585	-476.54693	189.70892	1347.45080	-467.85637	-95.82860	1452.50289	-921.07516	-98.37462	1230.26454	-1034.35036	-77.52393	1306.92993	-1072.80089	-7.02716	1327.02136	-992.71414	93.58872	1334.60469	-887.21992	118.13362	1336.90571	-918.92859	-199.82089	981.48351	-528.88795	-211.81159	959.63145	-733.84873	-188.86606	975.05728	-540.26959	-208.80518	969.25282	-704.15172	
